<?xml version="1.0" encoding="UTF-8"?>
<svg version="1.1" xmlns="http://www.w3.org/2000/svg" width="141" height="138">
<path d="M0 0 C10.23 0 20.46 0 31 0 C31 1.32 31 2.64 31 4 C33.31 4 35.62 4 38 4 C38 4.99 38 5.98 38 7 C42.95 7 47.9 7 53 7 C53 8.32 53 9.64 53 11 C55.31 11 57.62 11 60 11 C60 11.99 60 12.98 60 14 C62.31 14 64.62 14 67 14 C67 11.69 67 9.38 67 7 C71.95 7 76.9 7 82 7 C82 4.69 82 2.38 82 0 C89.59 0 97.18 0 105 0 C105 1.32 105 2.64 105 4 C107.31 4 109.62 4 112 4 C112.02332946 19.49839856 112.04097941 34.99679582 112.05181217 50.49520779 C112.05697503 57.69090295 112.06401753 64.88658722 112.07543945 72.08227539 C112.0853866 78.35184694 112.0918535 84.62141061 112.09408849 90.89098984 C112.09539555 94.21265621 112.09899997 97.53429466 112.10573006 100.85595512 C112.11293628 104.55819947 112.11399112 108.26039631 112.11352539 111.96264648 C112.11712067 113.07178909 112.12071594 114.1809317 112.12442017 115.32368469 C112.1230455 116.32634369 112.12167084 117.32900269 112.12025452 118.36204529 C112.12163721 119.67698298 112.12163721 119.67698298 112.12304783 121.01848507 C112 123 112 123 111 124 C108.64686445 124.07271741 106.29166332 124.08370868 103.9375 124.0625 C102.00197266 124.04896484 102.00197266 124.04896484 100.02734375 124.03515625 C99.02832031 124.02355469 98.02929688 124.01195313 97 124 C97 126.31 97 128.62 97 131 C92.05 131 87.1 131 82 131 C82 133.31 82 135.62 82 138 C72.1 138 62.2 138 52 138 C52 136.02 52 134.04 52 132 C44.74 131.67 37.48 131.34 30 131 C30 129.02 30 127.04 30 125 C23.07 124.505 23.07 124.505 16 124 C16 126.31 16 128.62 16 131 C11.38 131 6.76 131 2 131 C2 133.31 2 135.62 2 138 C-5.59 138 -13.18 138 -21 138 C-21 136.02 -21 134.04 -21 132 C-23.64 132 -26.28 132 -29 132 C-29 93.06 -29 54.12 -29 14 C-24.38 14 -19.76 14 -15 14 C-15 11.69 -15 9.38 -15 7 C-10.05 7 -5.1 7 0 7 C0 4.69 0 2.38 0 0 Z M2 27 C2 29.31 2 31.62 2 34 C-0.31 34 -2.62 34 -5 34 C-5 58.75 -5 83.5 -5 109 C-3.35 109 -1.7 109 0 109 C0 106.69 0 104.38 0 102 C2.64 102 5.28 102 8 102 C8 77.25 8 52.5 8 27 C6.02 27 4.04 27 2 27 Z M31 27 C31 53.73 31 80.46 31 108 C39.13137085 109.32998316 39.13137085 109.32998316 52 109 C52 82.93 52 56.86 52 30 C49.69 30 47.38 30 45 30 C45 29.01 45 28.02 45 27 C40.38 27 35.76 27 31 27 Z M82 27 C82 29.31 82 31.62 82 34 C79.69 34 77.38 34 75 34 C75 58.75 75 83.5 75 109 C77.31 109 79.62 109 82 109 C82 106.69 82 104.38 82 102 C84.31 102 86.62 102 89 102 C89 77.25 89 52.5 89 27 C86.69 27 84.38 27 82 27 Z " fill="#FCFEFD" transform="translate(29,0)"/>
<path d="M0 0 C2.31 0 4.62 0 7 0 C7.02332946 15.49839856 7.04097941 30.99679582 7.05181217 46.49520779 C7.05697503 53.69090295 7.06401753 60.88658722 7.07543945 68.08227539 C7.0853866 74.35184694 7.0918535 80.62141061 7.09408849 86.89098984 C7.09539555 90.21265621 7.09899997 93.53429466 7.10573006 96.85595512 C7.11293628 100.55819947 7.11399112 104.26039631 7.11352539 107.96264648 C7.11712067 109.07178909 7.12071594 110.1809317 7.12442017 111.32368469 C7.1230455 112.32634369 7.12167084 113.32900269 7.12025452 114.36204529 C7.12117631 115.23867042 7.1220981 116.11529554 7.12304783 117.01848507 C7 119 7 119 6 120 C3.64686445 120.07271741 1.29166332 120.08370868 -1.0625 120.0625 C-2.99802734 120.04896484 -2.99802734 120.04896484 -4.97265625 120.03515625 C-5.97167969 120.02355469 -6.97070312 120.01195313 -8 120 C-8 122.31 -8 124.62 -8 127 C-12.95 127 -17.9 127 -23 127 C-23 129.31 -23 131.62 -23 134 C-32.9 134 -42.8 134 -53 134 C-53 132.02 -53 130.04 -53 128 C-45.41 128 -37.82 128 -30 128 C-30 125.36 -30 122.72 -30 120 C-25.05 120 -20.1 120 -15 120 C-15 117.69 -15 115.38 -15 113 C-10.05 113 -5.1 113 0 113 C0 75.71 0 38.42 0 0 Z " fill="#1FD760" transform="translate(134,4)"/>
<path d="M0 0 C4.95 0 9.9 0 15 0 C15 1.65 15 3.3 15 5 C13.02 5 11.04 5 9 5 C9 7.31 9 9.62 9 12 C6.69 12 4.38 12 2 12 C2.00222061 12.9373851 2.00444122 13.8747702 2.00672913 14.84056091 C2.02696143 23.65521785 2.04197256 32.4698701 2.05181217 41.28454494 C2.05704078 45.81674094 2.06413801 50.34891827 2.07543945 54.88110352 C2.08626914 59.2512283 2.09227701 63.62133508 2.09487724 67.99147224 C2.09673135 69.66250963 2.10035168 71.33354597 2.10573006 73.00457573 C2.11294159 75.33697551 2.1139909 77.66929993 2.11352539 80.00170898 C2.11712067 80.6994191 2.12071594 81.39712921 2.12442017 82.11598206 C2.11405216 86.88594784 2.11405216 86.88594784 1 88 C-1.64 88 -4.28 88 -7 88 C-7 61.27 -7 34.54 -7 7 C-4.69 7 -2.38 7 0 7 C0 4.69 0 2.38 0 0 Z " fill="#1FD761" transform="translate(22,22)"/>
<path d="M0 0 C7.26 0 14.52 0 22 0 C22 1.65 22 3.3 22 5 C17.38 5 12.76 5 8 5 C8 31.73 8 58.46 8 86 C10.31 86 12.62 86 15 86 C15 86.66 15 87.32 15 88 C12.36 88 9.72 88 7 88 C7 85.69 7 83.38 7 81 C4.69 81 2.38 81 0 81 C0 54.27 0 27.54 0 0 Z " fill="#21D762" transform="translate(52,22)"/>
<path d="M0 0 C4.95 0 9.9 0 15 0 C15 1.65 15 3.3 15 5 C12.36 5 9.72 5 7 5 C7 7.31 7 9.62 7 12 C4.69 12 2.38 12 0 12 C0 37.08 0 62.16 0 88 C-2.31 88 -4.62 88 -7 88 C-7 61.27 -7 34.54 -7 7 C-4.69 7 -2.38 7 0 7 C0 4.69 0 2.38 0 0 Z " fill="#1FD761" transform="translate(104,22)"/>
<path d="M0 0 C4.95 0 9.9 0 15 0 C15 2.31 15 4.62 15 7 C12.69 7 10.38 7 8 7 C8 9.31 8 11.62 8 14 C3.38 14 -1.24 14 -6 14 C-6 16.31 -6 18.62 -6 21 C-13.59 21 -21.18 21 -29 21 C-29 18.69 -29 16.38 -29 14 C-24.38 14 -19.76 14 -15 14 C-15 11.69 -15 9.38 -15 7 C-10.05 7 -5.1 7 0 7 C0 4.69 0 2.38 0 0 Z " fill="#27D866" transform="translate(37,117)"/>
<path d="M0 0 C4.95 0 9.9 0 15 0 C15 2.31 15 4.62 15 7 C10.05 7 5.1 7 0 7 C0 4.69 0 2.38 0 0 Z " fill="#2AD968" transform="translate(59,124)"/>
<path d="M0 0 C2.31 0 4.62 0 7 0 C7 1.32 7 2.64 7 4 C4.69 4 2.38 4 0 4 C0 2.68 0 1.36 0 0 Z " fill="#33DA6E" transform="translate(82,11)"/>
<path d="M0 0 C2.31 0 4.62 0 7 0 C7 0.99 7 1.98 7 3 C4.69 3 2.38 3 0 3 C0 2.01 0 1.02 0 0 Z " fill="#1ED760" transform="translate(60,4)"/>
</svg>
